<?xml version="1.0" standalone="no"?>
<!DOCTYPE svg PUBLIC "-//W3C//DTD SVG 20010904//EN"
 "http://www.w3.org/TR/2001/REC-SVG-20010904/DTD/svg10.dtd">
<svg version="1.0" xmlns="http://www.w3.org/2000/svg"
 width="512.000000pt" height="512.000000pt" viewBox="0 0 512.000000 512.000000"
 preserveAspectRatio="xMidYMid meet">
<metadata>
Created by potrace 1.11, written by Peter Selinger 2001-2013
</metadata>
<g transform="translate(0.000000,512.000000) scale(0.100000,-0.100000)"
fill="#000000" stroke="none">
<path d="M0 2560 l0 -2560 2560 0 2560 0 0 2560 0 2560 -2560 0 -2560 0 0
-2560z m2872 1059 c11 -6 38 -49 60 -96 49 -105 64 -113 211 -113 99 0 106 -1
131 -26 l26 -27 0 -391 c0 -427 1 -421 -57 -445 -21 -8 -203 -11 -681 -9
l-654 3 -29 33 -30 33 3 390 3 391 28 24 c26 22 37 24 135 24 64 0 117 5 132
13 16 8 41 43 68 96 24 47 51 90 60 97 22 17 562 20 594 3z m-1342 -2050 c72
-16 118 -53 148 -117 25 -53 27 -66 27 -202 0 -162 -9 -201 -58 -257 -43 -49
-99 -73 -173 -73 -90 0 -156 37 -198 110 -29 53 -31 61 -34 191 -7 230 40 322
178 350 50 10 60 10 110 -2z m2352 -20 c36 -18 98 -84 98 -104 0 -6 -16 -19
-35 -28 -34 -16 -34 -16 -55 14 -29 40 -70 59 -129 59 -42 0 -56 -5 -85 -31
-46 -40 -60 -103 -54 -245 7 -161 39 -208 143 -208 86 0 131 42 142 132 l6 51
-69 3 -69 3 0 35 0 35 114 3 114 3 -6 -94 c-6 -108 -25 -156 -81 -205 -89 -78
-245 -68 -323 21 -49 56 -58 95 -58 257 0 154 7 186 52 248 57 77 196 101 295
51z m-2994 -226 l142 -238 0 238 0 237 40 0 40 0 0 -316 0 -315 -42 3 -42 3
-141 231 -140 231 -3 -233 -2 -234 -40 0 -40 0 0 315 0 315 43 0 42 0 143
-237z m1252 -78 l0 -315 -40 0 -40 0 0 315 0 315 40 0 40 0 0 -315z m335 103
c49 -114 92 -207 95 -208 3 0 45 95 95 210 l89 210 43 0 43 0 0 -315 0 -315
-40 0 -40 0 -2 216 -3 215 -75 -168 c-76 -168 -76 -168 -110 -171 l-35 -3 -75
168 -75 167 -5 -210 -5 -209 -40 0 -40 0 -3 313 -2 313 47 -3 48 -3 90 -207z
m877 -98 c59 -168 108 -308 108 -312 0 -5 -19 -8 -43 -8 l-43 0 -26 73 -25 72
-124 0 -123 0 -27 -70 c-26 -70 -26 -70 -68 -73 -26 -2 -41 1 -41 8 0 11 178
520 206 588 13 31 16 33 56 30 l42 -3 108 -305z m1176 273 l-3 -38 -152 -3
-153 -3 0 -94 0 -95 130 0 130 0 0 -40 0 -40 -130 0 -130 0 0 -100 0 -100 155
0 155 0 0 -40 0 -40 -200 0 -200 0 0 315 0 315 201 0 200 0 -3 -37z"/>
<path d="M2505 3301 c-165 -43 -273 -205 -244 -365 25 -142 117 -237 259 -267
138 -29 291 53 353 190 33 72 30 189 -6 262 -32 67 -100 133 -165 161 -50 22
-149 32 -197 19z m154 -156 c69 -35 109 -120 92 -195 -19 -85 -88 -140 -176
-140 -98 0 -175 79 -175 179 0 55 39 122 86 148 46 27 130 31 173 8z"/>
<path d="M1402 1478 c-12 -6 -32 -27 -45 -47 -20 -33 -22 -48 -22 -181 0 -128
2 -149 20 -180 28 -48 78 -73 134 -65 103 12 125 56 125 245 0 147 -9 179 -60
219 -30 23 -111 28 -152 9z"/>
<path d="M3190 1420 c0 -8 -20 -70 -44 -137 l-43 -123 95 0 c71 0 93 3 90 13
-3 6 -22 64 -43 127 -36 111 -55 151 -55 120z"/>
</g>
</svg>
